<svg xmlns="http://www.w3.org/2000/svg" version="1.1" xmlns:xlink="http://www.w3.org/1999/xlink" xmlns:svgjs="http://svgjs.dev/svgjs" width="1500" height="1500" viewBox="0 0 1500 1500"><rect width="1500" height="1500" fill="#000000"></rect><g transform="matrix(0.6666666666666666,0,0,0.6666666666666666,249.61019137290668,373.9713900134953)"><svg viewBox="0 0 328 247" data-background-color="#efefef" preserveAspectRatio="xMidYMid meet" height="1129" width="1500" xmlns="http://www.w3.org/2000/svg" xmlns:xlink="http://www.w3.org/1999/xlink"><g id="tight-bounds" transform="matrix(1,0,0,1,0.12785722968661162,-0.09999999999999432)"><svg viewBox="0 0 327.7442855406268 247.2" height="247.2" width="327.7442855406268"><g><svg viewBox="0 0 327.7442855406268 247.2" height="247.2" width="327.7442855406268"><g><svg viewBox="0 0 395.52 298.319599497274" height="247.2" width="327.7442855406268"><g transform="matrix(1,0,0,1,0,221.50510285297872)"><svg viewBox="0 0 395.52 76.81449664429529" height="76.81449664429529" width="395.52"><g id="textblocktransform"><svg viewBox="0 0 395.52 76.81449664429529" height="76.81449664429529" width="395.52" id="textblock"><g><svg viewBox="0 0 395.52 76.81449664429529" height="76.81449664429529" width="395.52"><g transform="matrix(1,0,0,1,0,0)"><svg width="395.52" viewBox="2.55 -36.35 243.73 46.3" height="76.81449664429529" data-palette-color="#d94e28"><g class="wordmark-text-0" data-fill-palette-color="primary" id="text-0"><path d="M2.55-31.5L2.55-36.15 26.55-36.15 26.55-31.5 16.85-31.5 16.85 0 12 0 12-31.5 2.55-31.5ZM41.7 0.5L41.7 0.5Q38.8 0.5 36.42-0.75 34.05-2 32.67-4.42 31.3-6.85 31.3-10.35L31.3-10.35Q31.3-13.8 32.75-16.32 34.2-18.85 36.62-20.2 39.05-21.55 41.95-21.55L41.95-21.55Q44.85-21.55 46.85-20.23 48.85-18.9 49.9-17.1L49.9-17.1 49.6-16.3 50.05-20.7 54.35-20.7 54.35 0 49.7 0 49.7-5.4 50.2-4.2Q50-3.7 49.32-2.93 48.65-2.15 47.52-1.35 46.4-0.55 44.95-0.03 43.5 0.5 41.7 0.5ZM42.95-3.35L42.95-3.35Q44.7-3.35 46.1-4 47.5-4.65 48.42-5.83 49.35-7 49.7-8.65L49.7-8.65 49.7-12.7Q49.3-14.2 48.3-15.33 47.3-16.45 45.9-17.07 44.5-17.7 42.8-17.7L42.8-17.7Q40.95-17.7 39.4-16.8 37.85-15.9 36.92-14.3 36-12.7 36-10.55L36-10.55Q36-8.55 36.95-6.9 37.9-5.25 39.5-4.3 41.1-3.35 42.95-3.35ZM74.59 0.5L74.59 0.5Q72.25 0.5 70.07-0.6 67.89-1.7 66.69-3.55L66.69-3.55 67-5 67 9.95 62.39 9.95 62.39-21 66.39-21 67.05-15.7 66.55-17.15Q68.05-19.05 70.34-20.3 72.64-21.55 75.5-21.55L75.5-21.55Q78.39-21.55 80.72-20.15 83.05-18.75 84.39-16.25 85.75-13.75 85.75-10.4L85.75-10.4Q85.75-7.05 84.3-4.6 82.84-2.15 80.32-0.83 77.8 0.5 74.59 0.5ZM73.69-3.2L73.69-3.2Q75.69-3.2 77.37-4.13 79.05-5.05 80.05-6.68 81.05-8.3 81.05-10.35L81.05-10.35Q81.05-12.45 80.09-14.08 79.14-15.7 77.57-16.65 76-17.6 74.05-17.6L74.05-17.6Q72.25-17.6 70.8-16.9 69.34-16.2 68.39-14.98 67.44-13.75 67.05-12.15L67.05-12.15 67.05-8.7Q67.3-7.1 68.25-5.85 69.19-4.6 70.62-3.9 72.05-3.2 73.69-3.2ZM113.74-33.4L111.89-29.7Q110.04-30.65 107.84-31.35 105.64-32.05 103.54-32.05L103.54-32.05Q100.64-32.05 98.92-30.7 97.19-29.35 97.19-27.1L97.19-27.1Q97.19-25.4 98.29-24.23 99.39-23.05 101.19-22.2 102.99-21.35 104.94-20.6L104.94-20.6Q106.64-19.95 108.29-19.15 109.94-18.35 111.27-17.15 112.59-15.95 113.37-14.2 114.14-12.45 114.14-9.85L114.14-9.85Q114.14-7 112.72-4.65 111.29-2.3 108.64-0.95 105.99 0.4 102.34 0.4L102.34 0.4Q99.94 0.4 97.77-0.15 95.59-0.7 93.74-1.58 91.89-2.45 90.44-3.4L90.44-3.4 92.59-7.2Q93.79-6.35 95.34-5.58 96.89-4.8 98.59-4.33 100.29-3.85 101.89-3.85L101.89-3.85Q103.59-3.85 105.27-4.48 106.94-5.1 108.04-6.4 109.14-7.7 109.14-9.85L109.14-9.85Q109.14-11.7 108.17-12.93 107.19-14.15 105.59-15.03 103.99-15.9 102.19-16.6L102.19-16.6Q100.49-17.25 98.74-18.03 96.99-18.8 95.49-19.93 93.99-21.05 93.09-22.7 92.19-24.35 92.19-26.7L92.19-26.7Q92.19-29.55 93.57-31.68 94.94-33.8 97.34-35.02 99.74-36.25 102.84-36.35L102.84-36.35Q106.34-36.35 109.02-35.5 111.69-34.65 113.74-33.4L113.74-33.4ZM130.74 0.5L130.74 0.5Q127.19 0.5 124.64-0.93 122.09-2.35 120.72-4.83 119.34-7.3 119.34-10.5L119.34-10.5Q119.34-13.55 120.89-16.05 122.44-18.55 125.04-20.05 127.64-21.55 130.84-21.55L130.84-21.55Q134.94-21.55 137.64-19.15 140.34-16.75 141.29-12.55L141.29-12.55 124.24-6.55 123.14-9.3 137.14-14.4 136.14-13.75Q135.54-15.4 134.14-16.63 132.74-17.85 130.49-17.85L130.49-17.85Q128.59-17.85 127.09-16.93 125.59-16 124.74-14.4 123.89-12.8 123.89-10.75L123.89-10.75Q123.89-8.6 124.79-6.98 125.69-5.35 127.27-4.42 128.84-3.5 130.84-3.5L130.84-3.5Q132.19-3.5 133.47-4 134.74-4.5 135.84-5.3L135.84-5.3 137.99-1.85Q136.44-0.8 134.52-0.15 132.59 0.5 130.74 0.5ZM147.14-20.7L151.29-20.7 151.74-14.7 151.49-15.5Q152.29-17.4 153.81-18.73 155.34-20.05 157.01-20.78 158.69-21.5 159.94-21.5L159.94-21.5 159.69-16.9Q157.34-17.05 155.56-16 153.79-14.95 152.76-13.2 151.74-11.45 151.74-9.45L151.74-9.45 151.74 0 147.14 0 147.14-20.7ZM174.59 0.6L174.34 0.6 162.84-20.7 168.34-20.7 176.14-4.25 173.29-4.35 180.44-20.7 185.64-20.7 174.59 0.6ZM190.63 0L190.63-20.7 195.28-20.7 195.28 0 190.63 0ZM190.28-28.2L190.28-28.2Q190.28-29.3 191.16-30.05 192.03-30.8 193.08-30.8L193.08-30.8Q194.13-30.8 194.96-30.05 195.78-29.3 195.78-28.2L195.78-28.2Q195.78-27.05 194.96-26.33 194.13-25.6 193.08-25.6L193.08-25.6Q192.03-25.6 191.16-26.35 190.28-27.1 190.28-28.2ZM217.73-4.85L220.13-1.9Q218.73-0.8 216.78-0.15 214.83 0.5 212.88 0.5L212.88 0.5Q209.48 0.5 206.93-0.85 204.38-2.2 202.96-4.63 201.53-7.05 201.53-10.35L201.53-10.35Q201.53-13.65 203.06-16.1 204.58-18.55 207.06-19.88 209.53-21.2 212.38-21.2L212.38-21.2Q214.88-21.2 216.86-20.5 218.83-19.8 220.23-18.6L220.23-18.6 217.93-15.6Q217.03-16.3 215.73-16.85 214.43-17.4 212.78-17.4L212.78-17.4Q210.98-17.4 209.46-16.48 207.93-15.55 207.06-13.95 206.18-12.35 206.18-10.35L206.18-10.35Q206.18-8.45 207.08-6.83 207.98-5.2 209.58-4.28 211.18-3.35 213.23-3.35L213.23-3.35Q214.58-3.35 215.71-3.75 216.83-4.15 217.73-4.85L217.73-4.85ZM235.73 0.5L235.73 0.5Q232.18 0.5 229.63-0.93 227.08-2.35 225.7-4.83 224.33-7.3 224.33-10.5L224.33-10.5Q224.33-13.55 225.88-16.05 227.43-18.55 230.03-20.05 232.63-21.55 235.83-21.55L235.83-21.55Q239.93-21.55 242.63-19.15 245.33-16.75 246.28-12.55L246.28-12.55 229.23-6.55 228.13-9.3 242.13-14.4 241.13-13.75Q240.53-15.4 239.13-16.63 237.73-17.85 235.48-17.85L235.48-17.85Q233.58-17.85 232.08-16.93 230.58-16 229.73-14.4 228.88-12.8 228.88-10.75L228.88-10.75Q228.88-8.6 229.78-6.98 230.68-5.35 232.25-4.42 233.83-3.5 235.83-3.5L235.83-3.5Q237.18-3.5 238.45-4 239.73-4.5 240.83-5.3L240.83-5.3 242.98-1.85Q241.43-0.8 239.5-0.15 237.58 0.5 235.73 0.5Z" fill="#ffffff" data-fill-palette-color="primary"></path></g></svg></g></svg></g></svg></g></svg></g><g transform="matrix(1,0,0,1,105.14150768330929,0)"><svg viewBox="0 0 185.2369846333814 185.2369846333814" height="185.2369846333814" width="185.2369846333814"><g><svg></svg></g><g id="icon-0"><svg viewBox="0 0 185.2369846333814 185.2369846333814" height="185.2369846333814" width="185.2369846333814"><g><path d="M0 92.618c0-51.152 41.467-92.618 92.618-92.618 51.152 0 92.618 41.467 92.619 92.618 0 51.152-41.467 92.618-92.619 92.619-51.152 0-92.618-41.467-92.618-92.619zM92.618 178.31c47.326 0 85.691-38.365 85.692-85.692 0-47.326-38.365-85.691-85.692-85.691-47.326 0-85.691 38.365-85.691 85.691 0 47.326 38.365 85.691 85.691 85.692z" data-fill-palette-color="accent" fill="#ffffff" stroke="transparent"></path></g><g transform="matrix(1,0,0,1,59.010781898788075,40.66755952160203)"><svg viewBox="0 0 67.21542083580526 103.90186559017735" height="103.90186559017735" width="67.21542083580526"><g><svg xmlns="http://www.w3.org/2000/svg" viewBox="20.87687048518243 5 58.222129514817574 90" x="0" y="0" height="103.90186559017735" width="67.21542083580526" class="icon-cg-0" data-fill-palette-color="accent" id="cg-0"><path d="M49.969 5c-19.249 0-29.26 15-29.09 30 0.236 21.833 21.826 30 29.09 60 7.279-30 29.13-38.642 29.13-60 0-15-11.306-30-29.12-30m0 11.313l0.094 0.063 19.75 17.531-2.063 2.344-17.781-15.75-17.75 15.75-2.094-2.344 19.781-17.531 0.063-0.063m7.719 2.25l3.313 0 0 5.75-3.25-2.781-0.063-2.969m-7.719 3.719l13.938 12.313 0 17.906-7.094 0 0-12.625-8 0 0 12.625-12.781 0 0-17.906 13.938-12.313" fill="#ffffff" data-fill-palette-color="accent"></path></svg></g></svg></g></svg></g></svg></g><g></g></svg></g></svg></g><defs></defs></svg><rect width="327.7442855406268" height="247.2" fill="none" stroke="none" visibility="hidden"></rect></g></svg></g></svg>